<svg version="1.1" id="Layer_1" xmlns="http://www.w3.org/2000/svg" xmlns:xlink="http://www.w3.org/1999/xlink" x="0px" y="0px"
	 width="100%" viewBox="0 0 448 448" enable-background="new 0 0 448 448" xml:space="preserve">
<path fill="#000000" opacity="1.000000" stroke="none" 
	d="
M81.454109,449.000000 
	C87.913757,432.454498 96.925285,417.410706 109.575394,404.374542 
	C120.546638,393.068481 133.730438,385.183899 146.852142,377.048035 
	C149.434433,375.446960 150.200943,373.326965 150.830353,370.589935 
	C155.431519,350.581635 167.413971,336.880157 186.688995,329.817383 
	C195.044189,326.755829 203.856094,326.164948 212.674530,326.881317 
	C217.158524,327.245514 219.027496,325.307068 219.618423,321.172607 
	C220.275467,316.575439 221.889038,312.100159 221.516449,307.375122 
	C221.122360,302.377411 219.860275,301.511261 215.143631,302.770416 
	C214.339691,302.985016 213.536560,303.211639 212.750687,303.483643 
	C203.374939,306.728516 194.857727,305.584717 187.013000,299.128357 
	C175.052490,289.284576 163.813660,278.688416 153.201630,267.430237 
	C149.423615,263.422150 147.562866,258.506836 147.641708,252.861649 
	C147.827835,239.532135 147.574020,226.188232 148.111755,212.874939 
	C148.430496,204.983368 142.846573,200.535080 139.867752,194.154358 
	C136.507843,196.573288 134.808212,199.624207 131.772629,201.168121 
	C130.134003,202.001526 128.581299,203.255127 126.734314,203.176392 
	C120.172325,202.896683 114.594025,203.995392 113.743576,212.637283 
	C110.222961,210.050507 110.098518,207.024734 109.605827,204.449692 
	C108.886047,200.687744 107.155655,198.489670 103.258682,198.088776 
	C101.947861,197.953918 100.658928,197.543076 99.378708,197.190414 
	C97.820595,196.761200 95.602692,196.718857 95.609901,194.624863 
	C95.618317,192.180435 97.932640,192.785477 99.465569,192.679031 
	C101.327858,192.549728 103.169632,192.304031 104.712502,191.260910 
	C107.621292,189.294357 108.478424,186.753403 105.363480,184.408066 
	C100.112709,180.454651 95.334129,176.260696 92.636871,170.008133 
	C91.503426,167.380676 88.518639,167.597336 86.062973,167.221237 
	C78.244942,166.023911 77.786812,165.531921 76.799957,157.672546 
	C75.298950,145.718506 83.780067,136.030960 97.821106,133.799316 
	C104.560524,132.728149 111.309341,131.651871 118.091827,130.938431 
	C122.625824,130.461502 124.186035,128.159958 123.699081,123.937080 
	C123.508705,122.286079 123.483833,120.598923 123.120567,118.987518 
	C118.110001,96.761536 131.777023,68.624702 155.235321,59.801292 
	C156.891998,59.178158 158.837082,58.927685 160.438522,56.714733 
	C155.344635,51.264515 148.701004,48.528816 141.773422,46.395187 
	C132.330536,43.486866 124.758255,46.743992 118.705818,54.062325 
	C116.272827,57.004200 114.166931,60.219772 111.966049,63.348686 
	C111.191483,64.449852 110.578636,65.844711 108.917664,65.258972 
	C107.232117,64.664558 107.484978,63.005432 107.784912,61.826874 
	C113.267998,40.282104 126.041389,25.164068 151.122467,36.501728 
	C155.846420,38.637146 160.265274,41.224682 164.328583,44.451641 
	C167.994766,47.363220 171.586365,47.935749 176.305450,45.904057 
	C189.918991,40.043060 203.663177,41.735783 217.103195,46.926277 
	C221.181946,48.501484 224.961731,49.535240 229.563477,49.068703 
	C243.939606,47.611206 257.692841,50.904404 270.952362,56.284794 
	C273.458374,57.301682 276.025238,57.853008 278.585052,58.542995 
	C283.274414,59.806999 287.900482,61.243042 291.511353,64.698036 
	C297.246643,70.185776 305.428497,70.048843 312.003204,73.739784 
	C316.452118,76.237366 321.068848,77.930283 321.917572,83.850151 
	C322.229156,86.023430 324.246552,86.893097 326.125671,87.749275 
	C334.455597,91.544685 342.269714,96.281181 350.256012,100.723495 
	C362.138763,107.333153 365.839294,117.329620 366.427032,130.023956 
	C367.357208,150.114075 365.501801,169.901215 361.994537,189.624100 
	C361.070190,194.822189 360.295685,199.532074 356.451202,204.037445 
	C353.377594,207.639481 352.746490,213.519775 351.610382,218.520447 
	C350.679932,222.615997 349.234741,226.494415 347.759186,230.361725 
	C346.122192,234.652130 343.298950,237.641068 338.860077,239.842102 
	C327.556519,245.447006 319.628571,255.064377 312.260162,264.937012 
	C303.577148,276.571045 298.867859,289.710022 299.228638,304.451508 
	C299.375397,310.448029 299.502411,316.462372 299.203033,322.446808 
	C298.980255,326.899994 300.823120,327.778015 304.983978,328.246582 
	C320.681671,330.014374 336.334381,332.318420 350.327759,340.502075 
	C360.461853,346.428680 366.232849,355.883759 370.767517,366.247345 
	C375.165741,376.299011 379.376068,386.434143 381.302765,397.326019 
	C381.679657,399.456604 382.846527,401.225433 384.469513,402.247009 
	C395.703461,409.318054 400.192352,420.750977 404.356964,432.428680 
	C405.361267,435.244812 406.430084,438.043213 407.287415,440.904266 
	C407.734711,442.396881 408.624725,444.436584 406.081970,444.933197 
	C403.525330,445.432526 404.029297,443.195221 403.466248,441.707642 
	C399.895020,432.272797 396.004333,422.971130 390.749725,414.315125 
	C390.436218,413.798706 389.781311,413.489502 388.378906,412.342651 
	C391.270752,420.620270 396.422333,427.170288 396.232727,435.812042 
	C402.204071,436.659424 394.286346,440.847534 396.387299,442.524658 
	C398.038239,444.574493 398.587097,442.059662 399.857574,442.502228 
	C401.659210,443.889984 400.961243,446.408295 401.972656,448.633606 
	C400.285645,449.000000 398.571289,449.000000 396.332153,448.647888 
	C392.653839,442.903625 391.630280,436.498016 387.563293,431.178131 
	C386.576630,432.969299 384.908356,434.643738 384.863098,436.360992 
	C384.767822,439.974670 382.852692,440.064026 380.081177,440.328369 
	C375.386139,440.776184 374.047821,437.311798 372.626007,434.295471 
	C369.010986,426.626373 363.877167,420.623444 355.929352,417.263031 
	C353.450256,416.214844 352.670258,414.367767 353.518219,411.736908 
	C366.043579,413.738617 371.610199,423.996216 378.968964,432.956207 
	C380.820465,428.525024 380.726044,424.740570 380.564056,420.987457 
	C379.741852,401.935760 374.577545,383.988129 366.529510,366.812225 
	C360.666199,354.298950 352.172546,344.474640 338.521759,340.077637 
	C336.523834,339.434113 334.539948,338.158325 332.548035,340.287842 
	C332.522064,342.126953 333.811218,343.324005 334.586792,344.747284 
	C337.446136,349.994385 341.087036,354.769958 343.455383,360.330170 
	C348.079376,371.186066 349.863068,381.883240 343.791901,392.893280 
	C341.061554,397.844849 338.409607,402.831390 335.556061,407.718719 
	C334.418793,409.666595 332.094574,411.390808 332.794098,414.198883 
	C335.391846,414.696167 337.185608,411.795288 339.679352,413.192444 
	C341.195099,416.164368 339.194275,417.532288 337.082062,418.648865 
	C331.582581,421.555847 327.057648,425.752014 322.312408,429.649261 
	C319.164673,432.234497 317.151337,435.566162 316.293640,439.895142 
	C321.737488,441.822296 326.344727,437.362885 331.653595,438.431488 
	C331.360352,442.040802 331.944489,445.689117 330.000000,449.000000 
	C327.299988,449.000000 324.599976,449.000000 321.463013,448.719666 
	C317.261536,446.872559 313.549805,446.344299 310.000000,449.000000 
	C305.643097,449.000000 301.286194,449.000000 296.668030,448.737946 
	C305.502441,438.091919 314.491302,427.614990 322.583160,416.417755 
	C330.873260,404.946136 338.608307,393.164886 342.663452,379.367706 
	C343.674530,375.927582 343.263153,372.958466 340.411499,370.867859 
	C334.647980,366.642517 328.704987,362.661133 322.816864,358.606934 
	C320.189423,356.797882 317.980835,357.363342 315.752319,359.590637 
	C312.589111,362.752075 309.394714,365.860016 305.696716,368.491547 
	C283.829132,384.052917 258.984009,388.416046 232.880402,388.181000 
	C231.483521,388.168427 229.814178,388.300446 229.332458,386.464905 
	C229.571793,385.527435 230.278549,385.256134 230.886414,385.337677 
	C239.107315,386.440918 247.128296,384.759308 255.177689,383.608704 
	C276.682495,380.534760 296.444885,373.528015 312.385834,358.000946 
	C317.457550,353.060883 317.782684,349.950287 313.556213,343.205170 
	C312.918701,346.122284 311.530365,348.244690 309.709137,350.162262 
	C303.151764,357.066620 295.139130,361.801270 286.401245,365.165283 
	C268.031189,372.237671 249.116165,377.393829 229.437103,379.053925 
	C220.677521,379.792877 211.773529,380.277283 203.924210,374.759430 
	C197.237015,370.058472 193.767715,363.399414 191.920578,355.087708 
	C190.546371,358.439056 189.498779,361.232605 188.266769,363.942322 
	C186.434341,367.972534 186.880569,371.184082 190.742645,373.928406 
	C192.707230,375.324432 195.433212,376.375488 195.960724,379.939636 
	C191.392914,379.439117 188.827316,376.114868 185.117966,373.846619 
	C183.621689,379.309631 182.352051,384.424469 180.798874,389.451752 
	C179.717407,392.952240 181.150131,394.425629 184.227585,395.907654 
	C197.854813,402.470367 211.762177,408.355011 225.728104,414.141876 
	C228.581528,415.324249 232.682938,415.243134 234.656799,420.390198 
	C215.033127,413.411896 197.216156,404.923035 179.396866,396.568695 
	C176.118668,403.367035 176.333023,403.942780 181.719620,406.874786 
	C190.209915,411.496124 199.208603,415.005829 207.954849,419.066284 
	C209.938156,419.987061 212.508972,420.331543 213.173843,424.681244 
	C200.210373,419.435638 188.593704,413.421997 175.944107,407.275421 
	C172.892059,421.513306 169.946045,435.256653 167.000000,449.000000 
	C165.611115,449.000000 164.222214,449.000000 162.401978,448.588745 
	C163.587326,434.129974 167.888855,420.533173 169.249863,406.306366 
	C163.334000,413.480743 158.085831,420.879150 152.102692,427.707977 
	C151.282990,428.643555 151.455170,430.565277 151.406174,432.038330 
	C151.218170,437.690491 151.127182,443.345825 151.000000,449.000000 
	C149.611115,449.000000 148.222214,449.000000 146.479340,448.589050 
	C146.312180,446.193390 146.809540,444.180786 146.633957,442.228699 
	C145.698868,431.833038 146.964310,422.301758 156.182098,415.561981 
	C156.560013,415.285645 156.738251,414.741516 157.022568,414.331177 
	C165.773911,401.700256 172.886185,388.144653 179.093124,374.138977 
	C180.651215,370.623260 183.110519,366.976837 182.221085,361.913208 
	C175.510956,364.610138 170.558884,368.864349 165.039612,372.113678 
	C161.406708,374.252441 159.369690,377.487396 158.227432,381.549103 
	C157.195816,385.217285 155.598877,388.724335 154.308334,392.322937 
	C153.791382,393.764435 152.905945,394.604309 151.347977,394.400238 
	C149.842300,394.203064 149.017303,393.173767 148.760300,391.740784 
	C148.496628,390.270569 148.485733,388.743561 148.111252,387.307343 
	C147.546295,385.140533 146.138870,383.987213 144.075943,385.539764 
	C135.835510,391.741455 125.759293,395.552429 118.788834,403.259216 
	C106.659302,416.670197 96.936325,431.733368 91.000000,449.000000 
	C87.969406,449.000000 84.938812,449.000000 81.454109,449.000000 
M233.099564,163.435638 
	C226.486206,158.964630 219.247528,161.344025 212.222687,161.630539 
	C211.429337,161.662888 210.215347,162.633499 209.981934,163.406296 
	C207.585739,171.339706 200.736145,175.280731 195.201309,180.480652 
	C188.902451,186.398376 189.150055,189.523636 195.664856,195.182404 
	C197.993195,197.204788 199.769073,199.543106 200.812286,202.422256 
	C201.237793,203.596664 201.287170,204.745575 199.712326,205.180801 
	C193.972305,197.538406 193.972305,197.538406 188.796173,196.310455 
	C197.271805,204.629135 191.424286,210.643906 187.993454,217.066650 
	C187.089035,216.206314 186.789597,215.398682 186.879196,214.636826 
	C187.441376,209.857590 184.743530,208.858200 180.798828,209.319260 
	C179.315628,209.492584 177.848679,209.814606 176.379364,210.095276 
	C170.508560,211.216644 164.645370,213.716476 158.708832,212.684616 
	C153.508865,211.780777 152.740921,214.086166 152.261887,218.096130 
	C150.590576,232.086334 150.789688,246.006271 153.234573,259.898285 
	C153.634079,262.168365 154.765472,263.796417 156.255753,265.460144 
	C162.264435,272.168091 169.066422,278.036621 175.606934,284.187744 
	C188.154953,295.988678 202.104385,301.458069 219.356888,295.438660 
	C228.916199,292.103363 238.837082,289.818848 248.512253,286.795898 
	C254.528152,284.916290 260.812927,283.140564 265.499176,278.714783 
	C278.499359,266.437225 287.888977,251.564255 294.953033,235.270538 
	C298.351227,227.432388 298.308899,227.057846 306.532562,229.315842 
	C307.656494,229.624435 308.781311,229.934540 309.890594,230.291016 
	C313.866516,231.568710 317.526520,230.802109 320.744110,228.310959 
	C334.532745,217.635406 342.167969,204.004593 340.831390,186.099731 
	C340.118866,176.554672 332.171417,171.537476 323.498627,175.513397 
	C314.828003,179.488327 307.277985,184.701752 304.499390,194.700974 
	C303.893616,196.880966 302.414398,198.859695 301.145294,200.805801 
	C297.886230,205.803482 293.605042,206.755325 288.192596,204.123779 
	C286.287628,203.197586 285.154236,200.960800 282.579468,200.926682 
	C280.619843,203.653641 280.875793,206.621124 281.966888,209.440384 
	C283.040375,212.214233 284.454498,214.883926 285.960388,217.458206 
	C294.296234,231.707855 280.075470,244.949341 267.272644,245.236038 
	C264.992615,245.287079 262.789673,244.776505 261.438171,242.370621 
	C263.662659,241.056152 265.687744,241.759979 267.612274,241.725998 
	C278.565399,241.532440 285.179901,232.278244 281.914246,221.847488 
	C280.872131,218.518875 278.934235,215.841888 276.576904,213.532257 
	C270.943817,208.013245 270.644073,201.565414 272.789551,194.601059 
	C273.817108,191.265396 275.308899,188.068375 275.687164,184.545822 
	C277.035522,171.990005 274.887726,170.266876 263.186432,175.019897 
	C256.662323,177.669983 250.261383,177.777969 243.720764,175.411743 
	C242.327332,174.907639 241.013565,174.372650 239.394897,174.550262 
	C230.177780,175.561661 220.923096,173.446762 211.693695,174.770157 
	C211.572571,174.787521 211.374802,174.270370 210.858322,173.417007 
	C219.392441,170.169403 228.017731,171.901413 236.951080,172.218552 
	C234.737717,169.558716 234.824982,166.538208 233.099564,163.435638 
M258.921204,56.457893 
	C253.533875,55.202999 248.081711,54.578644 242.559387,55.090034 
	C236.184616,55.680363 234.524200,57.292095 233.789154,63.246597 
	C231.903549,63.416733 230.008102,63.587753 227.564499,63.808235 
	C242.305145,72.574760 244.697388,82.073273 236.076401,96.350945 
	C229.414642,107.383820 218.956009,112.974037 206.741074,115.045670 
	C198.909225,116.373932 192.051651,113.468277 187.113297,106.847984 
	C181.955154,99.933060 182.834229,92.063614 186.295563,85.564186 
	C189.716202,79.141167 195.107849,73.329018 201.972900,69.863243 
	C206.593887,67.530365 206.311584,62.937889 209.035126,59.072895 
	C203.855209,58.707256 200.300125,60.704494 196.675690,62.151516 
	C184.904587,66.851036 173.879456,72.833359 167.725769,84.560570 
	C162.554993,94.414650 158.126480,104.662766 153.507416,114.799355 
	C151.879120,118.372704 149.950439,121.928062 150.048309,126.231567 
	C150.805252,126.400986 151.432388,126.652046 152.062973,126.661011 
	C153.726837,126.684669 155.424332,126.799515 157.051956,126.533081 
	C171.603668,124.151047 186.147873,124.630821 200.822647,125.562408 
	C234.914719,127.726662 266.759155,137.903564 297.209290,152.459595 
	C312.702728,159.865906 327.325897,169.128677 342.670898,176.965561 
	C346.608368,178.976501 349.471680,178.760422 352.516541,175.824783 
	C357.045746,171.458023 358.530243,166.117386 359.517212,159.938965 
	C361.400452,148.150208 362.038147,136.702576 358.028961,125.231003 
	C356.100128,119.711861 351.503265,116.465347 346.832855,115.778862 
	C342.023163,115.071930 339.204041,112.732483 335.766937,110.109962 
	C329.123383,105.040924 326.250092,96.146103 317.807129,92.960106 
	C313.657349,91.394157 309.640625,89.504066 309.047638,84.104637 
	C308.941071,83.134331 307.267731,82.222481 306.178558,81.490845 
	C291.530212,71.651100 276.853790,61.854374 258.921204,56.457893 
M298.021820,282.657745 
	C299.678772,271.029602 297.665375,259.638123 296.414612,247.390579 
	C291.934509,250.593552 289.192810,254.048660 286.891083,257.815063 
	C272.674561,281.077911 252.283142,297.941132 229.904938,312.685608 
	C226.924240,314.649536 225.593704,316.822021 225.202499,320.239990 
	C224.483932,326.518463 223.161377,332.641846 219.947739,338.278961 
	C215.330246,346.378601 208.684509,352.654114 201.928604,358.806519 
	C198.850815,361.609344 199.041611,363.785248 201.542908,366.795288 
	C207.322922,373.750824 215.187012,376.079987 223.464737,375.368774 
	C246.406433,373.397614 268.839722,368.783630 289.973969,359.241272 
	C293.147156,357.808563 297.005676,357.045685 299.033203,353.744934 
	C293.890717,343.049133 294.258850,331.843079 294.377899,320.719147 
	C294.511536,308.238556 295.389679,295.804504 298.021820,282.657745 
M205.349426,130.276535 
	C187.499390,128.138535 169.731049,130.153687 152.117188,132.395905 
	C145.621460,133.222824 138.933853,135.097534 132.459869,136.987518 
	C130.535156,137.549393 128.245453,137.625504 127.043007,139.852097 
	C129.075699,141.320206 130.854736,140.437241 132.570282,140.096191 
	C149.070969,136.815903 165.355743,138.196930 181.531952,142.250214 
	C195.739655,145.810257 209.218124,151.668854 223.335388,155.499603 
	C230.202103,157.362930 236.825134,160.005066 244.217194,159.947647 
	C256.802063,159.849899 268.294891,155.220123 280.172455,152.159821 
	C280.645203,152.038010 280.941742,151.232315 281.647797,150.324081 
	C257.646759,138.384308 232.443207,132.574844 205.349426,130.276535 
M202.149445,104.915260 
	C198.982620,104.060669 196.645401,102.079552 196.141113,98.886101 
	C195.425995,94.357620 192.441971,94.164108 189.006927,94.038361 
	C188.317032,103.959656 196.570999,111.688126 207.013306,110.588165 
	C218.909012,109.335114 233.546265,100.038422 236.895813,86.053886 
	C238.802414,78.093704 233.271744,69.505516 225.152130,68.325607 
	C211.777176,66.382034 198.526260,72.873299 191.802628,84.662682 
	C189.390457,88.892227 190.425461,90.507851 195.401016,90.943512 
	C197.938675,91.165710 200.405777,89.263840 203.040756,90.571732 
	C202.881607,92.450027 201.338913,92.788872 200.510086,93.732590 
	C198.339050,96.204514 199.062149,98.869881 201.476166,100.068810 
	C206.576859,102.602097 210.603943,98.809853 214.939224,96.906090 
	C218.617828,95.290695 215.633194,92.722549 215.852661,90.423767 
	C219.164871,89.840553 222.261414,88.930779 225.503754,90.433937 
	C220.749176,98.588989 212.166382,106.385185 202.149445,104.915260 
M178.025665,166.327805 
	C168.083694,161.533127 159.259628,166.722290 150.178024,169.485825 
	C148.397797,170.027573 148.189011,171.606308 148.480606,173.181931 
	C148.803360,174.925949 149.569641,176.410507 151.669998,176.358231 
	C152.656189,176.333679 153.656601,175.819016 154.614899,175.908524 
	C160.783340,176.484604 167.889511,172.846222 172.492889,180.537445 
	C174.011826,183.075241 179.164795,182.581375 179.502304,180.432037 
	C180.740997,172.543991 185.967194,165.754410 183.052933,156.565155 
	C180.309464,147.914520 177.358017,144.185593 167.447723,145.360657 
	C167.381134,146.279953 167.356140,147.253784 167.233322,148.215103 
	C166.597534,153.191956 167.999893,156.266663 173.789703,155.995163 
	C175.329422,155.922974 177.045456,156.753159 178.465652,157.551361 
	C182.014648,159.546036 182.128937,164.410233 178.025665,166.327805 
M147.107208,196.576538 
	C149.282654,202.837891 153.300537,208.128738 159.982300,208.256607 
	C167.468048,208.399857 175.065506,206.836533 182.381714,204.679794 
	C182.496689,204.645874 182.454453,204.078735 182.521835,203.389877 
	C171.813522,205.796997 163.545715,201.551331 158.713165,192.523758 
	C155.641449,186.785568 152.430542,188.130005 148.267761,189.524841 
	C144.271790,190.863770 143.746414,192.996948 147.107208,196.576538 
M134.257095,97.490517 
	C139.839355,89.435425 147.045135,82.884460 155.090042,76.009949 
	C143.342941,77.439568 133.322754,87.463989 132.346649,100.403130 
	C133.059937,99.328735 133.494965,98.673508 134.257095,97.490517 
M191.600555,333.132202 
	C185.865768,334.338379 180.835999,336.836914 176.608490,340.978607 
	C183.311584,339.053589 189.189331,339.332733 193.109909,346.151611 
	C194.680283,344.015991 195.344208,341.499695 194.403778,340.866943 
	C191.294266,338.774719 192.692352,335.818604 191.600555,333.132202 
M142.760437,172.774765 
	C142.466385,171.283447 142.021332,169.822449 140.731476,168.908676 
	C139.569641,168.085556 138.194534,168.172180 136.912292,168.639069 
	C135.809906,169.040451 135.459610,169.997833 135.788895,171.064270 
	C136.911072,174.698929 138.005157,178.347427 139.306259,181.919113 
	C139.813492,183.311554 140.781357,184.649200 142.713364,183.883896 
	C144.347092,183.236771 144.989319,181.967834 144.622742,180.300079 
	C144.124741,178.034454 143.498306,175.797058 142.760437,172.774765 
M182.284286,353.880859 
	C183.581390,352.190643 184.691666,350.425385 184.847855,348.223663 
	C178.704346,346.972076 170.794983,353.618927 168.258835,362.008850 
	C172.822495,359.402008 177.276199,356.857941 182.284286,353.880859 
M91.274124,141.591293 
	C83.968468,145.954376 82.836784,147.323471 83.017929,152.020752 
	C89.744263,148.039841 96.296387,144.162048 103.708405,139.775330 
	C98.811989,138.811020 95.456619,140.453018 91.274124,141.591293 
z"/>
<path fill="#000000" opacity="1.000000" stroke="none" 
	d="
M110.399994,449.000000 
	C109.315872,437.073639 109.972939,425.298431 113.732178,413.826385 
	C113.289650,425.311157 112.715942,436.723907 114.078323,448.562378 
	C112.933327,449.000000 111.866661,449.000000 110.399994,449.000000 
z"/>
<path fill="#000000" opacity="1.000000" stroke="none" 
	d="
M380.428467,449.000000 
	C377.824310,443.855286 381.727692,443.024231 385.005035,441.585205 
	C387.328003,443.950958 381.113434,446.635254 385.770447,448.814148 
	C384.285645,449.000000 382.571289,449.000000 380.428467,449.000000 
z"/>
<path fill="#000000" opacity="1.000000" stroke="none" 
	d="
M203.846649,195.966919 
	C204.510361,193.488983 205.126587,191.416992 205.662094,189.324326 
	C205.900955,188.390900 206.247528,187.438370 205.506332,186.492538 
	C202.239456,182.323700 202.309357,181.787903 207.458389,180.537979 
	C223.290222,176.694778 239.249420,175.158310 255.329926,178.948196 
	C258.860779,179.780365 262.599731,179.639557 265.934021,181.498383 
	C268.768829,183.078735 269.831055,185.018814 268.157806,187.973907 
	C261.773865,199.248322 254.221680,209.011642 240.163498,211.166885 
	C234.499405,212.035248 229.187180,210.877960 224.020248,209.177826 
	C218.607147,207.396729 213.050888,206.494385 207.511246,205.516647 
	C201.445251,204.446030 201.368713,204.613693 203.170746,198.781403 
	C203.415268,197.989975 203.569977,197.170792 203.846649,195.966919 
M225.020645,183.459595 
	C215.222748,184.085587 209.146286,189.532913 207.584793,198.958664 
	C207.197327,201.297562 208.006180,202.571304 210.339737,202.625458 
	C217.128296,202.783005 223.297119,205.520538 229.725662,207.170853 
	C241.891357,210.294006 256.796204,203.121658 261.675537,191.494232 
	C259.221893,193.420074 257.145508,195.332489 254.807022,196.837662 
	C242.984863,204.447083 233.877075,201.392242 228.571259,188.193817 
	C227.903275,186.532242 227.527649,184.628006 225.020645,183.459595 
z"/>
<path fill="#000000" opacity="1.000000" stroke="none" 
	d="
M322.497070,185.416443 
	C323.175507,184.888794 323.536346,184.529968 323.959473,184.274124 
	C326.993134,182.440048 329.805084,179.198883 333.798950,181.738647 
	C336.418579,183.404572 337.591370,192.659714 335.909790,195.836914 
	C334.257782,198.958221 330.557190,198.425598 327.889221,194.873276 
	C326.708801,193.301620 327.317719,190.847977 324.453278,189.333817 
	C323.253296,194.976990 328.793488,200.357178 324.528168,206.154282 
	C322.813354,202.057205 324.119598,197.413574 320.662140,194.533463 
	C317.749451,195.777054 318.492950,197.873322 318.876984,200.039795 
	C319.876129,205.676682 319.567352,210.974640 314.624634,215.004623 
	C313.247742,216.127258 311.837952,216.805481 310.111023,216.658356 
	C309.085663,216.570999 308.161133,216.110184 308.079010,214.876251 
	C308.013031,213.884949 308.733459,213.504791 309.500122,213.089600 
	C315.674683,209.745773 317.210815,205.801117 314.277496,199.543640 
	C313.092316,197.015381 313.318390,195.131912 314.992950,193.182220 
	C317.263672,190.538452 319.340179,187.706543 322.497070,185.416443 
z"/>
<path fill="#000000" opacity="1.000000" stroke="none" 
	d="
M185.911865,235.406738 
	C181.437180,235.426285 177.471008,235.396042 173.690659,233.662125 
	C171.350189,232.588623 169.773407,231.114594 169.756500,228.450897 
	C169.739243,225.726883 170.861374,223.470627 173.439087,222.444778 
	C181.389114,219.280899 189.411209,219.792709 197.330505,222.560959 
	C199.646576,223.370560 200.261307,225.592789 200.292191,227.887268 
	C200.321640,230.075439 199.398376,231.728302 197.395035,232.729813 
	C193.926819,234.463669 190.351669,235.742050 185.911865,235.406738 
M179.237732,229.331039 
	C184.205322,229.933365 189.189850,230.677109 194.640335,227.873489 
	C189.828156,224.735855 185.473755,224.531128 181.041748,225.695786 
	C179.720016,226.043121 177.398010,226.432709 179.237732,229.331039 
z"/>
<path fill="#000000" opacity="1.000000" stroke="none" 
	d="
M181.584381,258.190735 
	C195.029144,255.899704 209.120453,258.448608 214.625946,264.174469 
	C212.655518,266.022003 210.731308,264.960815 208.748566,264.361908 
	C197.936523,261.095978 187.140991,258.906067 176.480713,264.986847 
	C175.211502,265.710785 173.461914,266.326874 172.486618,264.650177 
	C171.425980,262.826782 173.033966,261.945465 174.382126,261.298706 
	C176.614532,260.227753 178.915955,259.300659 181.584381,258.190735 
z"/>
<path fill="#000000" opacity="1.000000" stroke="none" 
	d="
M213.170013,207.869598 
	C221.910080,209.696320 229.455963,214.794388 238.533569,213.742386 
	C240.996964,213.456909 243.621399,211.864136 246.200302,213.653336 
	C241.596161,219.900940 221.185577,217.343750 207.515594,208.815445 
	C208.934998,206.521027 210.968887,207.628510 213.170013,207.869598 
z"/>
<path fill="#000000" opacity="1.000000" stroke="none" 
	d="
M177.062775,214.413025 
	C171.470993,216.057083 166.355026,218.417923 159.899307,217.384003 
	C165.547501,213.299408 174.290909,211.182053 179.924469,212.188461 
	C180.274872,214.278656 178.538483,213.960815 177.062775,214.413025 
z"/>
<path fill="#000000" opacity="1.000000" stroke="none" 
	d="
M199.786499,249.250092 
	C201.901566,246.829224 205.896179,245.593735 207.815720,246.785400 
	C211.173233,248.869781 214.062332,251.525131 217.427429,254.940720 
	C213.766296,255.607590 212.674179,253.156464 210.998718,252.005981 
	C209.224655,250.787796 207.592316,249.363174 205.639954,247.825394 
	C204.825272,249.157303 207.210831,250.558929 204.727020,252.060608 
	C203.042679,252.675247 201.813461,250.307175 199.786499,249.250092 
z"/>
<path fill="#000000" opacity="1.000000" stroke="none" 
	d="
M219.571198,73.932907 
	C221.044342,78.371246 219.079895,81.652939 216.854370,84.777298 
	C215.621078,86.508675 213.948807,87.211891 212.526764,84.921196 
	C210.600937,81.818954 215.388229,73.949699 219.571198,73.932907 
z"/>
<path fill="#000000" opacity="1.000000" stroke="none" 
	d="
M206.478439,74.952286 
	C208.275284,71.894279 210.095749,72.382759 210.434753,75.107262 
	C210.902359,78.865440 210.103287,82.650749 207.445541,85.704575 
	C206.653702,86.614426 205.683655,87.292641 204.437744,86.582596 
	C203.281418,85.923599 202.955673,84.736267 203.327362,83.589371 
	C204.236038,80.785515 205.316162,78.037224 206.478439,74.952286 
z"/>
</svg>